<svg width="28" height="28" viewBox="0 0 28 28" fill="none" xmlns="http://www.w3.org/2000/svg">
<path d="M26.8888 7.89771L16.2225 0.534889C16.1954 0.514224 16.166 0.496619 16.135 0.482391C15.4681 0.1648 14.7387 0 14 0C13.2613 0 12.5319 0.1648 11.865 0.482391C11.834 0.496619 11.8046 0.514224 11.7775 0.534889L1.11125 7.89771C0.782684 8.1053 0.509736 8.38993 0.316087 8.7269C0.122438 9.06386 0.0139383 9.44299 0 9.83138V25.3751C0 26.845 1.53563 28 3.5 28H10.0625C10.2946 28 10.5171 27.9078 10.6812 27.7437C10.8453 27.5796 10.9375 27.3571 10.9375 27.125V17.9379C10.9375 17.1257 11.2602 16.3468 11.8345 15.7725C12.4088 15.1982 13.1878 14.8755 14 14.8755C14.8122 14.8755 15.5912 15.1982 16.1655 15.7725C16.7398 16.3468 17.0625 17.1257 17.0625 17.9379V27.125C17.0625 27.3571 17.1547 27.5796 17.3188 27.7437C17.4829 27.9078 17.7054 28 17.9375 28H24.5C26.4644 28 28 26.845 28 25.3751V9.83138C27.9861 9.44299 27.8776 9.06386 27.6839 8.7269C27.4903 8.38993 27.2173 8.1053 26.8888 7.89771Z" fill="white"/>
</svg>
